HIERARCHY
ROOT Hips
{
	OFFSET 54.119301 -7.314646 96.239098
	CHANNELS 6 Xposition Yposition Zposition Xrotation Yrotation Zrotation
	JOINT spine
	{
		OFFSET 0.000000 -0.467660 8.132492
		CHANNELS 3 Xrotation Yrotation Zrotation
		JOINT spine1
		{
			OFFSET 0.000000 -0.000001 10.349800
			CHANNELS 3 Xrotation Yrotation Zrotation
			JOINT spine2
			{
				OFFSET 0.000000 -0.000002 9.916992
				CHANNELS 3 Xrotation Yrotation Zrotation
				JOINT Neck
				{
					OFFSET 0.000000 -1.213904 25.460999
					CHANNELS 3 Xrotation Yrotation Zrotation
					JOINT Head
					{
						OFFSET 0.000000 -0.000001 7.692444
						CHANNELS 3 Xrotation Yrotation Zrotation
						End Site
						{
							OFFSET 0.000000 6.140627 18.619995
						}
					}
				}
				JOINT RightShoulder
				{
					OFFSET -4.175751 0.581444 10.709595
					CHANNELS 3 Xrotation Yrotation Zrotation
					JOINT RightArm
					{
						OFFSET 0.000000 -0.000002 14.046600
						CHANNELS 3 Xrotation Yrotation Zrotation
						JOINT RightArmRoll
						{
							OFFSET 0.000000 -0.000001 7.090988
							CHANNELS 3 Xrotation Yrotation Zrotation
							JOINT RightForeArm
							{
								OFFSET 0.000000 -0.000004 20.653503
								CHANNELS 3 Xrotation Yrotation Zrotation
								JOINT RightForeArmRoll
								{
									OFFSET 0.000000 -0.000001 7.957184
									CHANNELS 3 Xrotation Yrotation Zrotation
									JOINT RightHand
									{
										OFFSET 0.000000 -0.000003 15.968292
										CHANNELS 3 Xrotation Yrotation Zrotation
										End Site
										{
											OFFSET 0.000000 0.000000 0.100006
										}
									}
								}
							}
						}
					}
				}
				JOINT LeftShoulder
				{
					OFFSET 4.175751 0.581444 10.709595
					CHANNELS 3 Xrotation Yrotation Zrotation
					JOINT LeftArm
					{
						OFFSET 0.000000 -0.000002 14.046600
						CHANNELS 3 Xrotation Yrotation Zrotation
						JOINT LeftArmRoll
						{
							OFFSET 0.000000 -0.000001 7.090988
							CHANNELS 3 Xrotation Yrotation Zrotation
							JOINT LeftForeArm
							{
								OFFSET 0.000000 -0.000004 20.653503
								CHANNELS 3 Xrotation Yrotation Zrotation
								JOINT LeftForeArmRoll
								{
									OFFSET 0.000000 -0.000001 7.957184
									CHANNELS 3 Xrotation Yrotation Zrotation
									JOINT LeftHand
									{
										OFFSET 0.000000 -0.000003 15.968292
										CHANNELS 3 Xrotation Yrotation Zrotation
										End Site
										{
											OFFSET 0.000000 0.000000 0.100006
										}
									}
								}
							}
						}
					}
				}
			}
		}
	}
	JOINT RightUpLeg
	{
		OFFSET -7.208340 1.108840 -1.321823
		CHANNELS 3 Xrotation Yrotation Zrotation
		JOINT RightUpLegRoll
		{
			OFFSET 0.000000 -0.000003 18.723801
			CHANNELS 3 Xrotation Yrotation Zrotation
			JOINT RightLeg
			{
				OFFSET 0.000000 0.000004 -23.186600
				CHANNELS 3 Xrotation Yrotation Zrotation
				JOINT RightLegRoll
				{
					OFFSET 0.000000 -0.000004 23.262398
					CHANNELS 3 Xrotation Yrotation Zrotation
					JOINT RightFoot
					{
						OFFSET 0.000000 -0.000003 19.362106
						CHANNELS 3 Xrotation Yrotation Zrotation
						JOINT RightToeBase
						{
							OFFSET 0.000000 -0.000003 16.185699
							CHANNELS 3 Xrotation Yrotation Zrotation
							End Site
							{
								OFFSET 0.006859 0.903521 7.838623
							}
						}
					}
				}
			}
		}
	}
	JOINT LeftUpLeg
	{
		OFFSET 7.208340 1.108840 -1.321823
		CHANNELS 3 Xrotation Yrotation Zrotation
		JOINT LeftUpLegRoll
		{
			OFFSET 0.000000 -0.000003 18.723900
			CHANNELS 3 Xrotation Yrotation Zrotation
			JOINT LeftLeg
			{
				OFFSET 0.000000 -0.000004 23.186493
				CHANNELS 3 Xrotation Yrotation Zrotation
				JOINT LeftLegRoll
				{
					OFFSET 0.000000 -0.000004 23.477509
					CHANNELS 3 Xrotation Yrotation Zrotation
					JOINT LeftFoot
					{
						OFFSET 0.000000 -0.000003 19.147003
						CHANNELS 3 Xrotation Yrotation Zrotation
						JOINT LeftToeBase
						{
							OFFSET 0.000000 -0.000003 16.185699
							CHANNELS 3 Xrotation Yrotation Zrotation
							End Site
							{
								OFFSET -0.030746 0.903521 7.838623
							}
						}
					}
				}
			}
		}
	}
}
MOTION
Frames: 6
Frame Time: 0.041667
53.905201 -8.591950 96.269592 -3.125454 0.840477 -1.138848 -2.617754 -0.191515 -0.104569 -1.232889 -0.386137 -0.212143 0.412202 -0.388576 -0.207607 11.648039 0.140070 -3.489544 5.105100 0.647064 -3.642124 -18.125854 -27.253834 -21.254219 -126.787504 -175.585927 -79.739255 0.000001 -0.000002 -0.000004 48.615968 3.998790 1.302948 -0.000000 0.000007 -3.000438 -5.000230 -7.999342 0.000086 -17.931687 35.995285 21.036310 -139.268131 179.440804 94.247998 -0.000005 0.000002 0.000009 38.554622 -3.401561 1.529708 0.000002 0.000000 3.015520 -5.000255 7.998925 -0.000136 -0.218690 -173.093058 4.181400 -179.999991 0.000005 -1.080995 171.636848 -2.372536 -0.507684 -0.000002 0.000001 0.026530 68.680045 6.522708 3.097544 25.456957 -7.355614 -0.000000 0.597368 173.138370 -1.938380 -0.000020 -0.000005 -1.047370 -11.796319 1.126571 0.564378 0.000003 0.000000 -0.292354 73.343855 -6.540880 -2.816104 25.459190 7.355616 -0.003369 
53.896500 -8.589649 96.268486 -3.129143 0.847926 -1.137567 -2.618885 -0.191772 -0.102195 -1.235158 -0.388537 -0.207736 0.409933 -0.390930 -0.203161 11.672141 0.143367 -3.498806 5.096186 0.636929 -3.650021 -18.138520 -27.342234 -21.272966 -126.744091 -175.343196 -79.717214 0.000002 -0.000001 -0.000003 48.364552 4.040415 1.275778 0.000000 0.000008 -3.000438 -5.000229 -7.999343 0.000088 -18.148730 35.975569 21.331574 -138.861748 179.262659 94.041466 -0.000004 0.000003 0.000010 38.447702 -3.412203 1.518373 0.000002 -0.000000 3.015520 -5.000254 7.998921 -0.000136 -0.206574 -173.104041 4.177215 -179.999991 0.000005 -1.080995 171.653773 -2.372637 -0.506985 -0.000002 0.000001 0.026251 68.672402 6.523103 3.096469 25.456957 -7.355614 -0.000000 0.603116 173.127387 -1.947022 -0.000020 -0.000004 -1.047080 -11.795523 1.128112 0.564902 0.000002 0.000000 -0.292482 73.343323 -6.539212 -2.821492 25.459189 7.355615 -0.003368 
53.895100 -8.594892 96.268890 -3.132868 0.855375 -1.135904 -2.620063 -0.192055 -0.099736 -1.237529 -0.391037 -0.203226 0.407567 -0.393383 -0.198612 11.697943 0.147147 -3.508057 5.086519 0.626928 -3.657922 -18.150784 -27.430581 -21.291207 -126.699476 -175.098415 -79.689265 -0.000002 0.000001 -0.000004 48.115141 4.081989 1.249520 -0.000000 0.000008 -3.000431 -5.000229 -7.999346 0.000087 -18.378799 35.948843 21.645291 -138.425094 179.091426 93.804145 -0.000002 0.000003 0.000009 38.354309 -3.420092 1.504141 0.000002 -0.000001 3.015510 -5.000254 7.998923 -0.000136 -0.194251 -173.115038 4.173012 -179.999991 0.000005 -1.080995 171.670863 -2.371742 -0.506131 -0.000002 0.000001 0.025967 68.664773 6.523532 3.095299 25.456955 -7.355616 -0.000000 0.609052 173.117387 -1.955737 -0.000020 -0.000004 -1.046790 -11.794430 1.129720 0.565425 0.000003 0.000000 -0.292609 73.342558 -6.537497 -2.827084 25.459183 7.355614 -0.003369 
53.891899 -8.592889 96.269493 -3.136747 0.862738 -1.133962 -2.621236 -0.192347 -0.097286 -1.239860 -0.393555 -0.198782 0.405230 -0.395856 -0.194125 11.724745 0.151305 -3.517101 5.076276 0.617163 -3.665661 -18.162690 -27.519763 -21.308925 -126.654069 -174.852474 -79.657197 0.000000 0.000000 -0.000004 47.865320 4.123717 1.223874 -0.000000 0.000009 -3.000428 -5.000227 -7.999340 0.000087 -18.616982 35.916884 21.970702 -137.969603 178.925671 93.543607 -0.000004 0.000001 0.000009 38.269751 -3.426053 1.488015 0.000002 -0.000001 3.015510 -5.000253 7.998922 -0.000136 -0.181795 -173.125037 4.168847 -179.999991 0.000006 -1.082006 171.687842 -2.370858 -0.505284 -0.000002 0.000001 0.025679 68.657123 6.523890 3.094219 25.456953 -7.355614 -0.000001 0.615122 173.107402 -1.964341 -0.000020 -0.000004 -1.046500 -11.793138 1.131272 0.565934 0.000003 0.000001 -0.292733 73.341588 -6.535798 -2.832592 25.459185 7.355616 -0.003367 
53.894501 -8.583890 96.267303 -3.140873 0.869929 -1.131845 -2.622314 -0.192634 -0.094939 -1.242029 -0.396012 -0.194567 0.403056 -0.398270 -0.189870 11.752150 0.155733 -3.525749 5.065656 0.607734 -3.673070 -18.173914 -27.610604 -21.325777 -126.608348 -174.606232 -79.622848 -0.000001 0.000000 -0.000004 47.612805 4.165821 1.198507 0.000000 0.000007 -3.000419 -5.000229 -7.999344 0.000087 -18.857886 35.882016 22.300703 -137.505956 178.763550 93.268187 -0.000008 0.000002 0.000007 38.189247 -3.430918 1.471025 0.000002 -0.000001 3.015510 -5.000255 7.998922 -0.000136 -0.169278 -173.136034 4.164807 -179.999991 0.000005 -1.082006 171.704535 -2.369971 -0.505446 -0.000002 0.000002 0.025386 68.649678 6.524227 3.093221 25.456953 -7.355614 -0.000000 0.621277 173.097416 -1.972678 -0.000020 -0.000004 -1.046200 -11.791942 1.132677 0.566428 0.000003 0.000000 -0.292855 73.340591 -6.534041 -2.838292 25.459183 7.355616 -0.003369 
53.891300 -8.585267 96.268593 -3.145361 0.876860 -1.129646 -2.623243 -0.192899 -0.092785 -1.243920 -0.398326 -0.190751 0.401172 -0.400546 -0.186017 11.779551 0.160324 -3.533824 5.054869 0.598743 -3.679960 -18.184610 -27.703946 -21.341889 -126.562804 -174.360550 -79.587905 0.000000 -0.000001 -0.000002 47.355197 4.208518 1.173109 0.000000 0.000006 -3.000416 -5.000228 -7.999342 0.000089 -19.096717 35.846267 22.628499 -137.045423 178.602658 92.986694 -0.000002 0.000001 0.000009 38.107825 -3.435524 1.454138 0.000002 0.000000 3.015510 -5.000254 7.998921 -0.000136 -0.156772 -173.146033 4.160929 -179.999991 0.000005 -1.082006 171.720641 -2.370067 -0.504780 -0.000002 0.000002 0.025089 68.642301 6.524497 3.092408 25.456955 -7.355616 0.000000 0.627470 173.087430 -1.980571 -0.000020 -0.000004 -1.045900 -11.790846 1.133827 0.566896 0.000002 0.000001 -0.292975 73.339491 -6.532293 -2.843999 25.459189 7.355615 -0.003369 
